<svg xmlns="http://www.w3.org/2000/svg" viewBox="0 0 280 64" width="280" height="64">
  <!--
    BatiGesti Logo — Monochrome blanc
    Usage: Sur fond coloré (#22c55e), dark mode, overlays
  -->

  <!-- ICON -->
  <g transform="translate(4, 4)">
    <rect x="0" y="8" width="8" height="48" rx="1.5" fill="#fff" />
    <rect x="8" y="8" width="20" height="20" rx="2" fill="#fff" opacity="0.7" />
    <rect x="8" y="32" width="24" height="24" rx="2" fill="#fff" />
    <polygon points="0,8 34,8 34,0 28,0 0,0" fill="#fff" opacity="0.7" />
    <rect x="28" y="0" width="6" height="14" rx="1" fill="#fff" opacity="0.7" />
    <rect x="13" y="38" width="6" height="6" rx="1" fill="#22c55e" opacity="0.7" />
    <rect x="22" y="38" width="6" height="6" rx="1" fill="#22c55e" opacity="0.7" />
    <rect x="13" y="48" width="6" height="6" rx="1" fill="#22c55e" opacity="0.5" />
    <rect x="22" y="48" width="6" height="6" rx="1" fill="#22c55e" opacity="0.5" />
    <line x1="18" y1="10" x2="18" y2="26" stroke="#22c55e" stroke-width="0.7" opacity="0.25" />
    <line x1="10" y1="18" x2="26" y2="18" stroke="#22c55e" stroke-width="0.7" opacity="0.25" />
  </g>

  <!-- TEXT -->
  <text x="52" y="42" font-family="'Inter', 'Segoe UI', 'Helvetica Neue', Arial, sans-serif" font-size="32" font-weight="600" letter-spacing="-0.5" fill="#fff">
    <tspan>Bati</tspan><tspan opacity="0.75">Gesti</tspan>
  </text>
</svg>