<svg xmlns="http://www.w3.org/2000/svg" width="1200" height="750" viewBox="0 0 1200 750">
  <defs>
    <linearGradient id="bg" x1="0" y1="0" x2="1" y2="1">
      <stop offset="0%" stop-color="#f97316" stop-opacity="0.08"/>
      <stop offset="100%" stop-color="#dc2626" stop-opacity="0.15"/>
    </linearGradient>
    <linearGradient id="accent" x1="0" y1="0" x2="1" y2="0">
      <stop offset="0%" stop-color="#f97316"/>
      <stop offset="100%" stop-color="#dc2626"/>
    </linearGradient>
  </defs>
  <rect width="1200" height="750" fill="#f8fafc"/>
  <rect width="1200" height="750" fill="url(#bg)"/>
  <!-- Grid pattern -->
  <g opacity="0.05">
    <line x1="0" y1="100" x2="1200" y2="100" stroke="#94a3b8" stroke-width="1"/>
    <line x1="0" y1="200" x2="1200" y2="200" stroke="#94a3b8" stroke-width="1"/>
    <line x1="0" y1="300" x2="1200" y2="300" stroke="#94a3b8" stroke-width="1"/>
    <line x1="0" y1="400" x2="1200" y2="400" stroke="#94a3b8" stroke-width="1"/>
    <line x1="0" y1="500" x2="1200" y2="500" stroke="#94a3b8" stroke-width="1"/>
    <line x1="0" y1="600" x2="1200" y2="600" stroke="#94a3b8" stroke-width="1"/>
    <line x1="200" y1="0" x2="200" y2="750" stroke="#94a3b8" stroke-width="1"/>
    <line x1="400" y1="0" x2="400" y2="750" stroke="#94a3b8" stroke-width="1"/>
    <line x1="600" y1="0" x2="600" y2="750" stroke="#94a3b8" stroke-width="1"/>
    <line x1="800" y1="0" x2="800" y2="750" stroke="#94a3b8" stroke-width="1"/>
    <line x1="1000" y1="0" x2="1000" y2="750" stroke="#94a3b8" stroke-width="1"/>
  </g>
  <!-- Fake sidebar -->
  <rect x="0" y="0" width="220" height="750" fill="#1e293b" opacity="0.9"/>
  <rect x="20" y="20" width="180" height="36" rx="8" fill="white" opacity="0.1"/>
  <rect x="20" y="76" width="140" height="28" rx="6" fill="white" opacity="0.08"/>
  <rect x="20" y="114" width="160" height="28" rx="6" fill="white" opacity="0.06"/>
  <rect x="20" y="152" width="120" height="28" rx="6" fill="white" opacity="0.06"/>
  <rect x="20" y="190" width="150" height="28" rx="6" fill="white" opacity="0.06"/>
  <rect x="20" y="228" width="130" height="28" rx="6" fill="white" opacity="0.06"/>
  <!-- Fake top bar -->
  <rect x="220" y="0" width="980" height="56" fill="white" opacity="0.95"/>
  <rect x="240" y="14" width="200" height="28" rx="6" fill="#f1f5f9"/>
  <!-- Cards -->
  <rect x="250" y="80" width="220" height="100" rx="12" fill="white" stroke="#e2e8f0" stroke-width="1"/>
  <rect x="490" y="80" width="220" height="100" rx="12" fill="white" stroke="#e2e8f0" stroke-width="1"/>
  <rect x="730" y="80" width="220" height="100" rx="12" fill="white" stroke="#e2e8f0" stroke-width="1"/>
  <rect x="970" y="80" width="200" height="100" rx="12" fill="white" stroke="#e2e8f0" stroke-width="1"/>
  <!-- Color accents in cards -->
  <rect x="270" y="100" width="60" height="8" rx="4" fill="url(#accent)"/>
  <rect x="270" y="120" width="120" height="24" rx="4" fill="#f97316" opacity="0.1"/>
  <rect x="510" y="100" width="60" height="8" rx="4" fill="#3b82f6"/>
  <rect x="510" y="120" width="100" height="24" rx="4" fill="#3b82f6" opacity="0.1"/>
  <rect x="750" y="100" width="60" height="8" rx="4" fill="#22c55e"/>
  <rect x="750" y="120" width="90" height="24" rx="4" fill="#22c55e" opacity="0.1"/>
  <!-- Main content area -->
  <rect x="250" y="210" width="920" height="500" rx="16" fill="white" stroke="#e2e8f0" stroke-width="1"/>
  <rect x="280" y="240" width="200" height="16" rx="4" fill="#e2e8f0"/>
  <rect x="280" y="270" width="860" height="1" fill="#e2e8f0"/>
  <rect x="280" y="290" width="860" height="36" rx="6" fill="#f8fafc"/>
  <rect x="280" y="340" width="860" height="36" rx="6" fill="white" stroke="#f1f5f9" stroke-width="1"/>
  <rect x="280" y="390" width="860" height="36" rx="6" fill="#f8fafc"/>
  <rect x="280" y="440" width="860" height="36" rx="6" fill="white" stroke="#f1f5f9" stroke-width="1"/>
  <!-- Center label -->
  <text x="600" y="600" text-anchor="middle" font-family="system-ui, sans-serif" font-size="24" fill="#f97316" opacity="0.4" font-weight="600">Vue Mobile</text>
  <text x="600" y="630" text-anchor="middle" font-family="system-ui, sans-serif" font-size="14" fill="#94a3b8">BatiGesti — Aperçu</text>
</svg>